<svg width="704" height="491" viewBox="0 0 704 491" fill="none" xmlns="http://www.w3.org/2000/svg">
<path d="M165.193 0H27.5806V212H165.193V0Z" fill="white"/>
<path d="M50.4059 61.9248C54.9532 61.9248 58.6395 58.2575 58.6395 53.7337C58.6395 49.2098 54.9532 45.5425 50.4059 45.5425C45.8586 45.5425 42.1724 49.2098 42.1724 53.7337C42.1724 58.2575 45.8586 61.9248 50.4059 61.9248Z" fill="#D83F31" stroke="#F2F2F2" stroke-width="3" stroke-miterlimit="10"/>
<path d="M50.4059 90.1145C54.9532 90.1145 58.6395 86.4472 58.6395 81.9234C58.6395 77.3995 54.9532 73.7322 50.4059 73.7322C45.8586 73.7322 42.1724 77.3995 42.1724 81.9234C42.1724 86.4472 45.8586 90.1145 50.4059 90.1145Z" fill="#D83F31" stroke="#F2F2F2" stroke-width="3" stroke-miterlimit="10"/>
<path d="M50.4059 118.304C54.9532 118.304 58.6395 114.637 58.6395 110.113C58.6395 105.589 54.9532 101.922 50.4059 101.922C45.8586 101.922 42.1724 105.589 42.1724 110.113C42.1724 114.637 45.8586 118.304 50.4059 118.304Z" stroke="#F2F2F2" stroke-width="3" stroke-miterlimit="10"/>
<path d="M50.4059 146.488C54.9532 146.488 58.6395 142.821 58.6395 138.297C58.6395 133.773 54.9532 130.105 50.4059 130.105C45.8586 130.105 42.1724 133.773 42.1724 138.297C42.1724 142.821 45.8586 146.488 50.4059 146.488Z" stroke="#F2F2F2" stroke-width="3" stroke-miterlimit="10"/>
<path d="M50.4059 174.678C54.9532 174.678 58.6395 171.01 58.6395 166.487C58.6395 161.963 54.9532 158.295 50.4059 158.295C45.8586 158.295 42.1724 161.963 42.1724 166.487C42.1724 171.01 45.8586 174.678 50.4059 174.678Z" stroke="#F2F2F2" stroke-width="3" stroke-miterlimit="10"/>
<path d="M139.721 17.2429H42.1665V26.8493H139.721V17.2429Z" fill="#F2F2F2"/>
<path d="M176.406 136.997H64.4458V139.597H176.406V136.997Z" fill="#F2F2F2"/>
<path d="M176.406 165.181H64.4458V167.781H176.406V165.181Z" fill="#F2F2F2"/>
<path d="M176.406 50.2446H64.4458V52.8441H176.406V50.2446Z" fill="#F2F2F2"/>
<path d="M176.406 78.4341H64.4458V81.0335H176.406V78.4341Z" fill="#F2F2F2"/>
<path d="M176.406 106.624H64.4458V109.223H176.406V106.624Z" fill="#F2F2F2"/>
<path d="M145.266 205.883C152.504 205.883 158.371 200.045 158.371 192.845C158.371 185.644 152.504 179.807 145.266 179.807C138.028 179.807 132.161 185.644 132.161 192.845C132.161 200.045 138.028 205.883 145.266 205.883Z" fill="#4760FF"/>
<path d="M150.811 194.093H146.549V198.362H144V194.093H139.738V191.545H144V187.305H146.566V191.545H150.828L150.811 194.093Z" fill="white"/>
<path d="M291.04 386.91C325.895 386.91 354.15 380.664 354.15 372.96C354.15 365.255 325.895 359.01 291.04 359.01C256.185 359.01 227.93 365.255 227.93 372.96C227.93 380.664 256.185 386.91 291.04 386.91Z" fill="#140C40"/>
<path d="M291.04 372.96L255.59 483.91" stroke="#140C40" stroke-width="4" stroke-miterlimit="10" stroke-linecap="round"/>
<path d="M291.04 372.96L326.49 483.91" stroke="#140C40" stroke-width="4" stroke-miterlimit="10" stroke-linecap="round"/>
<path d="M267.23 447.48L306.75 422.14" stroke="#140C40" stroke-width="2" stroke-miterlimit="10" stroke-linecap="round"/>
<path d="M275.17 422.14L314.7 447.48" stroke="#140C40" stroke-width="2" stroke-miterlimit="10" stroke-linecap="round"/>
<path d="M353.15 252.86C352.99 257.78 353.06 275.01 352.25 282.38" stroke="#1F161E" stroke-miterlimit="10" stroke-linecap="round"/>
<path d="M568.37 238H574.37C575 237.997 575.604 237.746 576.05 237.3C576.496 236.854 576.747 236.25 576.75 235.62V198.74C576.751 198.427 576.689 198.118 576.569 197.829C576.449 197.541 576.273 197.279 576.05 197.06L568.47 189.48C568.25 189.258 567.988 189.082 567.7 188.962C567.412 188.842 567.102 188.78 566.79 188.78H544.4C543.77 188.782 543.166 189.034 542.72 189.48C542.274 189.926 542.023 190.529 542.02 191.16V194.72" fill="#FBDC8E"/>
<path d="M558.29 194.72H536.29C535.937 194.72 535.588 194.789 535.262 194.925C534.936 195.06 534.641 195.258 534.392 195.508C534.143 195.758 533.945 196.055 533.811 196.381C533.677 196.707 533.609 197.057 533.61 197.41V241.21C533.61 241.921 533.892 242.604 534.394 243.108C534.897 243.612 535.578 243.897 536.29 243.9H565.68C566.392 243.897 567.074 243.612 567.576 243.108C568.078 242.604 568.36 241.921 568.36 241.21V204.81C568.361 204.457 568.293 204.108 568.159 203.782C568.026 203.456 567.829 203.16 567.58 202.91L560.18 195.51C559.68 195.007 559 194.722 558.29 194.72V194.72Z" fill="#D8D8D8"/>
<path d="M568.37 203.76H560.9C560.502 203.76 560.121 203.602 559.839 203.32C559.558 203.039 559.4 202.658 559.4 202.26V194.72" fill="#969696"/>
<path d="M576.78 197.83H569.31C568.91 197.827 568.528 197.667 568.245 197.385C567.963 197.102 567.803 196.719 567.8 196.32V188.78" fill="#3BB273"/>
<path d="M533.64 144.65H482.08C480.407 144.65 479.05 146.006 479.05 147.68V164.52C479.05 166.193 480.407 167.55 482.08 167.55H533.64C535.313 167.55 536.67 166.193 536.67 164.52V147.68C536.67 146.006 535.313 144.65 533.64 144.65Z" fill="#4760FF"/>
<path d="M507.85 183.25L514.79 162.23H500.91L507.85 183.25Z" fill="#4760FF"/>
<path d="M494.1 150.75L488.28 160.82H499.91L494.1 150.75Z" fill="white"/>
<path d="M521.61 160.82L527.43 150.75H515.79L521.61 160.82Z" fill="white"/>
<path d="M507.85 160.16C510.263 160.16 512.22 158.203 512.22 155.79C512.22 153.376 510.263 151.42 507.85 151.42C505.436 151.42 503.48 153.376 503.48 155.79C503.48 158.203 505.436 160.16 507.85 160.16Z" fill="white"/>
<path d="M503.36 96.1199H469.52C468.057 96.1199 466.87 97.3063 466.87 98.7699V119.23C466.87 120.693 468.057 121.88 469.52 121.88H503.36C504.824 121.88 506.01 120.693 506.01 119.23V98.7699C506.01 97.3063 504.824 96.1199 503.36 96.1199Z" fill="#D8D8D8"/>
<path d="M468.1 96.9299L486.44 109" stroke="#969696" stroke-width="0.82" stroke-linecap="round" stroke-linejoin="round"/>
<path d="M506.01 96.1199L486.44 109" stroke="#969696" stroke-width="0.82" stroke-linecap="round" stroke-linejoin="round"/>
<path d="M506.01 101.72C509.103 101.72 511.61 99.2128 511.61 96.12C511.61 93.0272 509.103 90.52 506.01 90.52C502.917 90.52 500.41 93.0272 500.41 96.12C500.41 99.2128 502.917 101.72 506.01 101.72Z" fill="#FBDC8E"/>
<path d="M506.989 97.98H506.326V93.585L504.996 94.0733V93.4745L506.885 92.7652H506.989V97.98Z" fill="white"/>
<path d="M702.43 111.83H556.43C555.751 111.83 555.2 112.381 555.2 113.06V113.82C555.2 114.499 555.751 115.05 556.43 115.05H702.43C703.109 115.05 703.66 114.499 703.66 113.82V113.06C703.66 112.381 703.109 111.83 702.43 111.83Z" fill="#D8D8D8"/>
<path d="M618.1 47.8899H609.23C607.816 47.8899 606.67 49.036 606.67 50.4499V109.27C606.67 110.684 607.816 111.83 609.23 111.83H618.1C619.514 111.83 620.66 110.684 620.66 109.27V50.4499C620.66 49.036 619.514 47.8899 618.1 47.8899Z" fill="#969696"/>
<path d="M625.53 62.8799H622.79C621.614 62.8799 620.66 63.8335 620.66 65.0099V109.7C620.66 110.876 621.614 111.83 622.79 111.83H625.53C626.707 111.83 627.66 110.876 627.66 109.7V65.0099C627.66 63.8335 626.707 62.8799 625.53 62.8799Z" fill="#D8D8D8"/>
<path d="M632.6 62.8799H629.72C628.582 62.8799 627.66 63.8022 627.66 64.9399V109.77C627.66 110.908 628.582 111.83 629.72 111.83H632.6C633.738 111.83 634.66 110.908 634.66 109.77V64.9399C634.66 63.8022 633.738 62.8799 632.6 62.8799Z" fill="#969696"/>
<path d="M637.676 66.3833L635.313 67.4681C634.209 67.975 633.725 69.2811 634.232 70.3853L652.819 110.872C653.326 111.977 654.632 112.461 655.737 111.954L658.099 110.869C659.204 110.362 659.688 109.056 659.181 107.952L640.593 67.4647C640.086 66.3605 638.78 65.8763 637.676 66.3833Z" fill="#D8D8D8"/>
<path d="M613.66 95.6498C615.819 95.6498 617.57 93.8993 617.57 91.7398C617.57 89.5804 615.819 87.8298 613.66 87.8298C611.501 87.8298 609.75 89.5804 609.75 91.7398C609.75 93.8993 611.501 95.6498 613.66 95.6498Z" fill="#D8D8D8"/>
<path d="M617.2 97.99H610.12C609.601 97.99 609.18 98.4108 609.18 98.93C609.18 99.4491 609.601 99.87 610.12 99.87H617.2C617.719 99.87 618.14 99.4491 618.14 98.93C618.14 98.4108 617.719 97.99 617.2 97.99Z" fill="#D8D8D8"/>
<path d="M617.2 102.8H610.12C609.601 102.8 609.18 103.221 609.18 103.74C609.18 104.259 609.601 104.68 610.12 104.68H617.2C617.719 104.68 618.14 104.259 618.14 103.74C618.14 103.221 617.719 102.8 617.2 102.8Z" fill="#D8D8D8"/>
<path d="M545.56 199.24H538.48C537.961 199.24 537.54 199.661 537.54 200.18C537.54 200.699 537.961 201.12 538.48 201.12H545.56C546.079 201.12 546.5 200.699 546.5 200.18C546.5 199.661 546.079 199.24 545.56 199.24Z" fill="#969696"/>
<path d="M545.56 203.76H538.48C537.961 203.76 537.54 204.181 537.54 204.7C537.54 205.219 537.961 205.64 538.48 205.64H545.56C546.079 205.64 546.5 205.219 546.5 204.7C546.5 204.181 546.079 203.76 545.56 203.76Z" fill="#969696"/>
<path d="M563.92 211.49H538.07C537.551 211.49 537.13 211.911 537.13 212.43C537.13 212.949 537.551 213.37 538.07 213.37H563.92C564.439 213.37 564.86 212.949 564.86 212.43C564.86 211.911 564.439 211.49 563.92 211.49Z" fill="#969696"/>
<path d="M563.92 215.93H538.07C537.551 215.93 537.13 216.351 537.13 216.87C537.13 217.389 537.551 217.81 538.07 217.81H563.92C564.439 217.81 564.86 217.389 564.86 216.87C564.86 216.351 564.439 215.93 563.92 215.93Z" fill="#969696"/>
<path d="M563.92 220.37H538.07C537.551 220.37 537.13 220.791 537.13 221.31C537.13 221.829 537.551 222.25 538.07 222.25H563.92C564.439 222.25 564.86 221.829 564.86 221.31C564.86 220.791 564.439 220.37 563.92 220.37Z" fill="#969696"/>
<path d="M624.89 70.2698C624.89 69.8666 624.563 69.5398 624.16 69.5398C623.757 69.5398 623.43 69.8666 623.43 70.2698V104.43C623.43 104.833 623.757 105.16 624.16 105.16C624.563 105.16 624.89 104.833 624.89 104.43V70.2698Z" fill="#969696"/>
<path d="M594.18 113.44H587.92C586.545 113.44 585.43 114.555 585.43 115.93C585.43 117.305 586.545 118.42 587.92 118.42H594.18C595.555 118.42 596.67 117.305 596.67 115.93C596.67 114.555 595.555 113.44 594.18 113.44Z" fill="#D8D8D8"/>
<path d="M670.94 113.44H664.68C663.305 113.44 662.19 114.555 662.19 115.93C662.19 117.305 663.305 118.42 664.68 118.42H670.94C672.315 118.42 673.43 117.305 673.43 115.93C673.43 114.555 672.315 113.44 670.94 113.44Z" fill="#D8D8D8"/>
<path d="M434.65 118.31H398.14C391.513 118.31 386.14 123.683 386.14 130.31V148.12C386.14 154.747 391.513 160.12 398.14 160.12H434.65C441.278 160.12 446.65 154.747 446.65 148.12V130.31C446.65 123.683 441.278 118.31 434.65 118.31Z" fill="#D8D8D8"/>
<path d="M407.76 125.04H398.66V153.39H407.76V125.04Z" fill="#D83F31"/>
<path d="M420.95 143.9H411.85V153.4H420.95V143.9Z" fill="#D83F31"/>
<path d="M434.13 135.9H425.03V153.39H434.13V135.9Z" fill="#D83F31"/>
<path d="M444.19 470.68C444.19 473.05 442.8 488 445.57 489.38C448.34 490.76 478.79 491.6 480.17 490.21C481.55 488.82 482.38 485.92 481.17 485.09C479.96 484.26 468.17 481.91 466.57 480.8C464.97 479.69 462.76 473.8 463.57 470.68" fill="#1F161E"/>
<path d="M353.15 275.25L370.29 269.1C369.55 237.83 362.24 167.96 351.86 157.57C349.42 155.14 301.16 150.9 292.55 150.9C241.17 150.9 225.93 156.76 222.06 160.64C210.06 172.64 206.32 228.24 206.32 247.71C206.32 267.18 261.32 277.28 261.32 277.28L325.79 281.71C325.79 281.71 339.93 283.17 352.16 283.89C352.43 280.14 353.15 275.25 353.15 275.25Z" fill="#4760FF"/>
<path d="M404.22 293.38C408.91 291.99 455.55 284.38 465.71 294.38C475.87 304.38 507.85 447.75 507.85 451.05H482.1L447.34 376.24" fill="#140C40"/>
<path d="M234.41 280.63C233.24 286.48 226.21 292.76 226.21 324.63C226.21 368.7 262.31 369.63 275.27 369.63C315.65 369.63 380.98 357.63 385.39 355.43C388.32 360.33 442.25 470.43 442.5 472.89H467.33C467.33 472.89 451.94 308.17 424.17 289.49C415.15 283.49 255.12 277.07 234.41 280.63Z" fill="#3BB273"/>
<path d="M379.81 248.41C373.29 248.41 367.91 249.96 353.15 252.86L352.38 281.1C366.38 275.46 369.63 267.62 373.69 267.62C383.83 267.62 389.13 272.85 395.12 272.85C399.3 272.85 406.82 269.57 406.82 265.11C406.82 255.77 387.89 248.41 379.81 248.41Z" fill="#F8CDBA"/>
<path d="M483.56 449.07C483.56 451.45 482.17 466.39 484.94 467.78C487.71 469.17 518.16 469.99 519.54 468.61C520.92 467.23 521.75 464.32 520.54 463.49C519.33 462.66 507.54 460.3 505.94 459.19C504.34 458.08 502.13 452.19 502.94 449.07" fill="#1F161E"/>
<path d="M301.64 157.55C301.64 161.32 279.75 161.43 279.75 157.55V126.89H301.64V157.55Z" fill="#F8CDBA"/>
<path d="M294.51 137C292.51 137 279.75 142.64 279.75 145.79V129.15C282.93 129.15 294.51 137 294.51 137Z" fill="#140C40"/>
<path d="M298.74 138.3C313.376 138.3 325.24 126.435 325.24 111.8C325.24 97.1643 313.376 85.2998 298.74 85.2998C284.104 85.2998 272.24 97.1643 272.24 111.8C272.24 126.435 284.104 138.3 298.74 138.3Z" fill="#F8CDBA"/>
<path d="M326.09 90.9998C322.81 96.2098 315.95 98.5998 308.52 98.5998C302.19 98.5998 292.97 96.7598 286.41 100.5C282.86 102.5 278.79 107.05 277.97 116.16C277.97 117.72 276.2 123.77 276.2 125.72C276.2 127.05 274.7 127.92 272.2 127.92C270.91 127.92 268.36 125.83 268.36 122.64C268.36 118.95 269.83 117.64 269.83 114.51C269.83 111.38 266 108.37 266 99.6698C266 87.1398 274 79.4198 279.66 79.4198C284.82 79.4198 286.44 80.6198 287.09 81.1298C287.09 69.7398 302.09 64.5398 308.04 64.5398C314.84 64.5398 318.04 67.3298 318.04 70.8798C318.04 76.5398 315.34 81.3498 313.97 82.4298C317.071 79.6402 321.099 78.1039 325.27 78.1198C333.06 78.1198 335.68 83.2398 335.68 86.7398C335.68 94.3498 326.55 101.4 323.15 101.4C322.295 99.5901 321.291 97.8542 320.15 96.2098" fill="#140C40"/>
<path d="M278.79 120.95C281.911 120.95 284.44 118.42 284.44 115.3C284.44 112.18 281.911 109.65 278.79 109.65C275.67 109.65 273.14 112.18 273.14 115.3C273.14 118.42 275.67 120.95 278.79 120.95Z" fill="#F8CDBA"/>
<path d="M325.5 116.66C327.919 116.66 329.88 115.639 329.88 114.38C329.88 113.121 327.919 112.1 325.5 112.1C323.081 112.1 321.12 113.121 321.12 114.38C321.12 115.639 323.081 116.66 325.5 116.66Z" fill="#FA9E9F"/>
<path d="M297.95 116.66C300.369 116.66 302.33 115.639 302.33 114.38C302.33 113.121 300.369 112.1 297.95 112.1C295.531 112.1 293.57 113.121 293.57 114.38C293.57 115.639 295.531 116.66 297.95 116.66Z" fill="#FA9E9F"/>
<path d="M314.8 109.65C315.62 110.82 319.8 115.73 315.39 117.72" stroke="#1F161E" stroke-miterlimit="10" stroke-linecap="round"/>
<path d="M306.56 123.45C305.24 123.45 303.21 121.81 302.14 120.34" stroke="#1F161E" stroke-miterlimit="10" stroke-linecap="round"/>
<path d="M341.5 194.62C343.5 198.87 353.15 239.87 353.15 252.86" stroke="#1F161E" stroke-miterlimit="10" stroke-linecap="round"/>
<path d="M206.32 244.41C206.32 290.5 206.75 303.87 225.25 303.87C267.89 303.87 332.35 268.87 343.84 268.87C353.99 268.87 359.29 274.11 365.28 274.11C369.45 274.11 376.97 270.82 376.97 266.37C376.97 257.02 358.04 249.66 349.97 249.66C331.8 249.66 259.29 267.18 257.52 267.18C255.75 267.18 252.77 266.41 252.77 263.43C252.77 258.02 256.31 245.52 256.77 244.43L206.32 244.41Z" fill="#F8CDBA"/>
<path d="M267.42 204.21C266.2 207.72 256.69 243.99 255.59 248.41" stroke="#1F161E" stroke-miterlimit="10" stroke-linecap="round"/>
<path d="M628.458 484.747C629.177 487.481 631.977 489.116 634.712 488.397C637.447 487.678 639.081 484.878 638.362 482.143L587.163 287.401C586.444 284.666 583.644 283.032 580.91 283.751C578.175 284.47 576.541 287.27 577.26 290.004L628.458 484.747Z" fill="#969696"/>
<path d="M576.751 290.012C577.47 287.278 575.836 284.478 573.101 283.759C570.366 283.04 567.566 284.674 566.847 287.409L515.649 482.151C514.93 484.886 516.564 487.686 519.299 488.405C522.033 489.124 524.833 487.489 525.552 484.755L576.751 290.012Z" fill="#969696"/>
<path d="M506.102 290.011C506.821 287.277 505.187 284.477 502.452 283.758C499.718 283.039 496.918 284.673 496.199 287.408L445 482.15C444.281 484.885 445.915 487.685 448.65 488.404C451.385 489.123 454.185 487.488 454.904 484.754L506.102 290.011Z" fill="#D8D8D8"/>
<path d="M556.919 481.152C557.626 483.895 560.423 485.546 563.166 484.839C565.909 484.132 567.559 481.335 566.852 478.592L516.512 283.273C515.805 280.53 513.009 278.88 510.266 279.587C507.523 280.294 505.873 283.09 506.579 285.833L556.919 481.152Z" fill="#D8D8D8"/>
<path d="M217.681 290.016C218.4 287.282 216.766 284.482 214.032 283.763C211.297 283.044 208.497 284.678 207.778 287.413L156.579 482.155C155.86 484.89 157.494 487.69 160.229 488.408C162.964 489.127 165.764 487.493 166.483 484.759L217.681 290.016Z" fill="#969696"/>
<path d="M268.519 484.759C269.238 487.494 272.038 489.128 274.773 488.409C277.507 487.69 279.142 484.89 278.423 482.156L227.224 287.413C226.505 284.679 223.705 283.045 220.97 283.764C218.236 284.483 216.601 287.282 217.32 290.017L268.519 484.759Z" fill="#969696"/>
<path d="M608.27 274.14H113.1C110.598 274.14 108.57 276.168 108.57 278.67V284.76C108.57 287.262 110.598 289.29 113.1 289.29H608.27C610.772 289.29 612.8 287.262 612.8 284.76V278.67C612.8 276.168 610.772 274.14 608.27 274.14Z" fill="#D8D8D8"/>
<path d="M144.506 290.019C145.225 287.284 143.591 284.485 140.857 283.766C138.122 283.047 135.322 284.681 134.603 287.416L83.4043 482.158C82.6853 484.893 84.3194 487.692 87.0542 488.411C89.7889 489.13 92.5887 487.496 93.3077 484.762L144.506 290.019Z" fill="#D8D8D8"/>
<path d="M195.344 484.759C196.063 487.494 198.862 489.128 201.597 488.409C204.332 487.69 205.966 484.89 205.247 482.156L154.048 287.413C153.329 284.679 150.53 283.045 147.795 283.764C145.06 284.483 143.426 287.282 144.145 290.017L195.344 484.759Z" fill="#D8D8D8"/>
<path d="M479.28 274.14H386.77L403.53 216.5C403.949 215.109 404.806 213.891 405.974 213.028C407.142 212.165 408.558 211.702 410.01 211.71H488.51C489.541 211.693 490.562 211.918 491.491 212.365C492.42 212.813 493.231 213.472 493.861 214.288C494.49 215.105 494.92 216.058 495.116 217.07C495.312 218.083 495.269 219.127 494.99 220.12L479.28 274.14Z" fill="#140C40"/>
<path d="M444.38 248.58C447.506 248.58 450.04 246.046 450.04 242.92C450.04 239.794 447.506 237.26 444.38 237.26C441.254 237.26 438.72 239.794 438.72 242.92C438.72 246.046 441.254 248.58 444.38 248.58Z" fill="white"/>
<path d="M397.76 270.09H332.85V274.14H397.76V270.09Z" fill="#140C40"/>
</svg>
