<svg width="294" height="294" viewBox="0 0 294 294" fill="none" xmlns="http://www.w3.org/2000/svg">
<circle cx="7" cy="7" r="7" fill="#4760FF"/>
<circle cx="47" cy="47" r="7" fill="#4760FF"/>
<circle cx="7" cy="47" r="7" fill="#4760FF"/>
<circle cx="47" cy="7" r="7" fill="#4760FF"/>
<circle cx="7" cy="87" r="7" fill="#4760FF"/>
<circle cx="47" cy="127" r="7" fill="#4760FF"/>
<circle cx="7" cy="127" r="7" fill="#4760FF"/>
<circle cx="47" cy="87" r="7" fill="#4760FF"/>
<circle cx="87" cy="7" r="7" fill="#4760FF"/>
<circle cx="127" cy="47" r="7" fill="#4760FF"/>
<circle cx="87" cy="47" r="7" fill="#4760FF"/>
<circle cx="127" cy="7" r="7" fill="#4760FF"/>
<circle cx="87" cy="87" r="7" fill="#4760FF"/>
<circle cx="127" cy="127" r="7" fill="#4760FF"/>
<circle cx="87" cy="127" r="7" fill="#4760FF"/>
<circle cx="127" cy="87" r="7" fill="#4760FF"/>
<circle cx="167" cy="7" r="7" fill="#4760FF"/>
<circle cx="207" cy="47" r="7" fill="#4760FF"/>
<circle cx="167" cy="47" r="7" fill="#4760FF"/>
<circle cx="207" cy="7" r="7" fill="#4760FF"/>
<circle cx="167" cy="87" r="7" fill="#4760FF"/>
<circle cx="207" cy="127" r="7" fill="#4760FF"/>
<circle cx="167" cy="127" r="7" fill="#4760FF"/>
<circle cx="207" cy="87" r="7" fill="#4760FF"/>
<circle cx="247" cy="7" r="7" fill="#4760FF"/>
<circle cx="287" cy="47" r="7" fill="#4760FF"/>
<circle cx="247" cy="47" r="7" fill="#4760FF"/>
<circle cx="287" cy="7" r="7" fill="#4760FF"/>
<circle cx="247" cy="87" r="7" fill="#4760FF"/>
<circle cx="287" cy="127" r="7" fill="#4760FF"/>
<circle cx="247" cy="127" r="7" fill="#4760FF"/>
<circle cx="287" cy="87" r="7" fill="#4760FF"/>
<circle cx="7" cy="167" r="7" fill="#4760FF"/>
<circle cx="47" cy="207" r="7" fill="#4760FF"/>
<circle cx="7" cy="207" r="7" fill="#4760FF"/>
<circle cx="47" cy="167" r="7" fill="#4760FF"/>
<circle cx="7" cy="247" r="7" fill="#4760FF"/>
<circle cx="47" cy="287" r="7" fill="#4760FF"/>
<circle cx="7" cy="287" r="7" fill="#4760FF"/>
<circle cx="47" cy="247" r="7" fill="#4760FF"/>
<circle cx="87" cy="167" r="7" fill="#4760FF"/>
<circle cx="127" cy="207" r="7" fill="#4760FF"/>
<circle cx="87" cy="207" r="7" fill="#4760FF"/>
<circle cx="127" cy="167" r="7" fill="#4760FF"/>
<circle cx="87" cy="247" r="7" fill="#4760FF"/>
<circle cx="127" cy="287" r="7" fill="#4760FF"/>
<circle cx="87" cy="287" r="7" fill="#4760FF"/>
<circle cx="127" cy="247" r="7" fill="#4760FF"/>
<circle cx="167" cy="167" r="7" fill="#4760FF"/>
<circle cx="207" cy="207" r="7" fill="#4760FF"/>
<circle cx="167" cy="207" r="7" fill="#4760FF"/>
<circle cx="207" cy="167" r="7" fill="#4760FF"/>
<circle cx="167" cy="247" r="7" fill="#4760FF"/>
<circle cx="207" cy="287" r="7" fill="#4760FF"/>
<circle cx="167" cy="287" r="7" fill="#4760FF"/>
<circle cx="207" cy="247" r="7" fill="#4760FF"/>
<circle cx="247" cy="167" r="7" fill="#4760FF"/>
<circle cx="287" cy="207" r="7" fill="#4760FF"/>
<circle cx="247" cy="207" r="7" fill="#4760FF"/>
<circle cx="287" cy="167" r="7" fill="#4760FF"/>
<circle cx="247" cy="247" r="7" fill="#4760FF"/>
<circle cx="287" cy="287" r="7" fill="#4760FF"/>
<circle cx="247" cy="287" r="7" fill="#4760FF"/>
<circle cx="287" cy="247" r="7" fill="#4760FF"/>
</svg>
