<svg width="505" height="337" viewBox="0 0 505 337" fill="none" xmlns="http://www.w3.org/2000/svg">
<g opacity="0.26">
<rect x="0.5" y="0.5" width="21" height="21" stroke="#0D1456"/>
<rect x="21.5" y="0.5" width="21" height="21" stroke="#0D1456"/>
<rect x="42.5" y="0.5" width="21" height="21" stroke="#0D1456"/>
<rect x="21.5" y="21.5" width="21" height="21" stroke="#0D1456"/>
<rect x="0.5" y="21.5" width="21" height="21" stroke="#0D1456"/>
<rect x="42.5" y="21.5" width="21" height="21" stroke="#0D1456"/>
<rect x="0.5" y="42.5" width="21" height="21" stroke="#0D1456"/>
<rect x="21.5" y="42.5" width="21" height="21" stroke="#0D1456"/>
<rect x="42.5" y="42.5" width="21" height="21" stroke="#0D1456"/>
<rect x="21.5" y="63.5" width="21" height="21" stroke="#0D1456"/>
<rect x="0.5" y="63.5" width="21" height="21" stroke="#0D1456"/>
<rect x="42.5" y="63.5" width="21" height="21" stroke="#0D1456"/>
<rect x="63.5" y="0.5" width="21" height="21" stroke="#0D1456"/>
<rect x="84.5" y="0.5" width="21" height="21" stroke="#0D1456"/>
<rect x="105.5" y="0.5" width="21" height="21" stroke="#0D1456"/>
<rect x="84.5" y="21.5" width="21" height="21" stroke="#0D1456"/>
<rect x="63.5" y="21.5" width="21" height="21" stroke="#0D1456"/>
<rect x="105.5" y="21.5" width="21" height="21" stroke="#0D1456"/>
<rect x="63.5" y="42.5" width="21" height="21" stroke="#0D1456"/>
<rect x="84.5" y="42.5" width="21" height="21" stroke="#0D1456"/>
<rect x="105.5" y="42.5" width="21" height="21" stroke="#0D1456"/>
<rect x="84.5" y="63.5" width="21" height="21" stroke="#0D1456"/>
<rect x="63.5" y="63.5" width="21" height="21" stroke="#0D1456"/>
<rect x="105.5" y="63.5" width="21" height="21" stroke="#0D1456"/>
<rect x="0.5" y="84.5" width="21" height="21" stroke="#0D1456"/>
<rect x="21.5" y="84.5" width="21" height="21" stroke="#0D1456"/>
<rect x="42.5" y="84.5" width="21" height="21" stroke="#0D1456"/>
<rect x="21.5" y="105.5" width="21" height="21" stroke="#0D1456"/>
<rect x="0.5" y="105.5" width="21" height="21" stroke="#0D1456"/>
<rect x="42.5" y="105.5" width="21" height="21" stroke="#0D1456"/>
<rect x="0.5" y="126.5" width="21" height="21" stroke="#0D1456"/>
<rect x="21.5" y="126.5" width="21" height="21" stroke="#0D1456"/>
<rect x="42.5" y="126.5" width="21" height="21" stroke="#0D1456"/>
<rect x="21.5" y="147.5" width="21" height="21" stroke="#0D1456"/>
<rect x="0.5" y="147.5" width="21" height="21" stroke="#0D1456"/>
<rect x="42.5" y="147.5" width="21" height="21" stroke="#0D1456"/>
<rect x="63.5" y="84.5" width="21" height="21" stroke="#0D1456"/>
<rect x="84.5" y="84.5" width="21" height="21" stroke="#0D1456"/>
<rect x="105.5" y="84.5" width="21" height="21" stroke="#0D1456"/>
<rect x="84.5" y="105.5" width="21" height="21" stroke="#0D1456"/>
<rect x="63.5" y="105.5" width="21" height="21" stroke="#0D1456"/>
<rect x="105.5" y="105.5" width="21" height="21" stroke="#0D1456"/>
<rect x="63.5" y="126.5" width="21" height="21" stroke="#0D1456"/>
<rect x="84.5" y="126.5" width="21" height="21" stroke="#0D1456"/>
<rect x="105.5" y="126.5" width="21" height="21" stroke="#0D1456"/>
<rect x="84.5" y="147.5" width="21" height="21" stroke="#0D1456"/>
<rect x="63.5" y="147.5" width="21" height="21" stroke="#0D1456"/>
<rect x="105.5" y="147.5" width="21" height="21" stroke="#0D1456"/>
<rect x="0.5" y="168.5" width="21" height="21" stroke="#0D1456"/>
<rect x="21.5" y="168.5" width="21" height="21" stroke="#0D1456"/>
<rect x="42.5" y="168.5" width="21" height="21" stroke="#0D1456"/>
<rect x="21.5" y="189.5" width="21" height="21" stroke="#0D1456"/>
<rect x="0.5" y="189.5" width="21" height="21" stroke="#0D1456"/>
<rect x="42.5" y="189.5" width="21" height="21" stroke="#0D1456"/>
<rect x="0.5" y="210.5" width="21" height="21" stroke="#0D1456"/>
<rect x="21.5" y="210.5" width="21" height="21" stroke="#0D1456"/>
<rect x="42.5" y="210.5" width="21" height="21" stroke="#0D1456"/>
<rect x="21.5" y="231.5" width="21" height="21" stroke="#0D1456"/>
<rect x="0.5" y="231.5" width="21" height="21" stroke="#0D1456"/>
<rect x="42.5" y="231.5" width="21" height="21" stroke="#0D1456"/>
<rect x="63.5" y="168.5" width="21" height="21" stroke="#0D1456"/>
<rect x="84.5" y="168.5" width="21" height="21" stroke="#0D1456"/>
<rect x="105.5" y="168.5" width="21" height="21" stroke="#0D1456"/>
<rect x="84.5" y="189.5" width="21" height="21" stroke="#0D1456"/>
<rect x="63.5" y="189.5" width="21" height="21" stroke="#0D1456"/>
<rect x="105.5" y="189.5" width="21" height="21" stroke="#0D1456"/>
<rect x="63.5" y="210.5" width="21" height="21" stroke="#0D1456"/>
<rect x="84.5" y="210.5" width="21" height="21" stroke="#0D1456"/>
<rect x="105.5" y="210.5" width="21" height="21" stroke="#0D1456"/>
<rect x="84.5" y="231.5" width="21" height="21" stroke="#0D1456"/>
<rect x="63.5" y="231.5" width="21" height="21" stroke="#0D1456"/>
<rect x="105.5" y="231.5" width="21" height="21" stroke="#0D1456"/>
<rect x="0.5" y="252.5" width="21" height="21" stroke="#0D1456"/>
<rect x="21.5" y="252.5" width="21" height="21" stroke="#0D1456"/>
<rect x="42.5" y="252.5" width="21" height="21" stroke="#0D1456"/>
<rect x="21.5" y="273.5" width="21" height="21" stroke="#0D1456"/>
<rect x="0.5" y="273.5" width="21" height="21" stroke="#0D1456"/>
<rect x="42.5" y="273.5" width="21" height="21" stroke="#0D1456"/>
<rect x="0.5" y="294.5" width="21" height="21" stroke="#0D1456"/>
<rect x="21.5" y="294.5" width="21" height="21" stroke="#0D1456"/>
<rect x="42.5" y="294.5" width="21" height="21" stroke="#0D1456"/>
<rect x="21.5" y="315.5" width="21" height="21" stroke="#0D1456"/>
<rect x="0.5" y="315.5" width="21" height="21" stroke="#0D1456"/>
<rect x="42.5" y="315.5" width="21" height="21" stroke="#0D1456"/>
<rect x="63.5" y="252.5" width="21" height="21" stroke="#0D1456"/>
<rect x="84.5" y="252.5" width="21" height="21" stroke="#0D1456"/>
<rect x="105.5" y="252.5" width="21" height="21" stroke="#0D1456"/>
<rect x="84.5" y="273.5" width="21" height="21" stroke="#0D1456"/>
<rect x="63.5" y="273.5" width="21" height="21" stroke="#0D1456"/>
<rect x="105.5" y="273.5" width="21" height="21" stroke="#0D1456"/>
<rect x="63.5" y="294.5" width="21" height="21" stroke="#0D1456"/>
<rect x="84.5" y="294.5" width="21" height="21" stroke="#0D1456"/>
<rect x="105.5" y="294.5" width="21" height="21" stroke="#0D1456"/>
<rect x="84.5" y="315.5" width="21" height="21" stroke="#0D1456"/>
<rect x="63.5" y="315.5" width="21" height="21" stroke="#0D1456"/>
<rect x="105.5" y="315.5" width="21" height="21" stroke="#0D1456"/>
<rect x="126.5" y="0.5" width="21" height="21" stroke="#0D1456"/>
<rect x="147.5" y="0.5" width="21" height="21" stroke="#0D1456"/>
<rect x="168.5" y="0.5" width="21" height="21" stroke="#0D1456"/>
<rect x="147.5" y="21.5" width="21" height="21" stroke="#0D1456"/>
<rect x="126.5" y="21.5" width="21" height="21" stroke="#0D1456"/>
<rect x="168.5" y="21.5" width="21" height="21" stroke="#0D1456"/>
<rect x="126.5" y="42.5" width="21" height="21" stroke="#0D1456"/>
<rect x="147.5" y="42.5" width="21" height="21" stroke="#0D1456"/>
<rect x="168.5" y="42.5" width="21" height="21" stroke="#0D1456"/>
<rect x="147.5" y="63.5" width="21" height="21" stroke="#0D1456"/>
<rect x="126.5" y="63.5" width="21" height="21" stroke="#0D1456"/>
<rect x="168.5" y="63.5" width="21" height="21" stroke="#0D1456"/>
<rect x="189.5" y="0.5" width="21" height="21" stroke="#0D1456"/>
<rect x="210.5" y="0.5" width="21" height="21" stroke="#0D1456"/>
<rect x="231.5" y="0.5" width="21" height="21" stroke="#0D1456"/>
<rect x="210.5" y="21.5" width="21" height="21" stroke="#0D1456"/>
<rect x="189.5" y="21.5" width="21" height="21" stroke="#0D1456"/>
<rect x="231.5" y="21.5" width="21" height="21" stroke="#0D1456"/>
<rect x="189.5" y="42.5" width="21" height="21" stroke="#0D1456"/>
<rect x="210.5" y="42.5" width="21" height="21" stroke="#0D1456"/>
<rect x="231.5" y="42.5" width="21" height="21" stroke="#0D1456"/>
<rect x="210.5" y="63.5" width="21" height="21" stroke="#0D1456"/>
<rect x="189.5" y="63.5" width="21" height="21" stroke="#0D1456"/>
<rect x="231.5" y="63.5" width="21" height="21" stroke="#0D1456"/>
<rect x="126.5" y="84.5" width="21" height="21" stroke="#0D1456"/>
<rect x="147.5" y="84.5" width="21" height="21" stroke="#0D1456"/>
<rect x="168.5" y="84.5" width="21" height="21" stroke="#0D1456"/>
<rect x="147.5" y="105.5" width="21" height="21" stroke="#0D1456"/>
<rect x="126.5" y="105.5" width="21" height="21" stroke="#0D1456"/>
<rect x="168.5" y="105.5" width="21" height="21" stroke="#0D1456"/>
<rect x="126.5" y="126.5" width="21" height="21" stroke="#0D1456"/>
<rect x="147.5" y="126.5" width="21" height="21" stroke="#0D1456"/>
<rect x="168.5" y="126.5" width="21" height="21" stroke="#0D1456"/>
<rect x="147.5" y="147.5" width="21" height="21" stroke="#0D1456"/>
<rect x="126.5" y="147.5" width="21" height="21" stroke="#0D1456"/>
<rect x="168.5" y="147.5" width="21" height="21" stroke="#0D1456"/>
<rect x="189.5" y="84.5" width="21" height="21" stroke="#0D1456"/>
<rect x="210.5" y="84.5" width="21" height="21" stroke="#0D1456"/>
<rect x="231.5" y="84.5" width="21" height="21" stroke="#0D1456"/>
<rect x="210.5" y="105.5" width="21" height="21" stroke="#0D1456"/>
<rect x="189.5" y="105.5" width="21" height="21" stroke="#0D1456"/>
<rect x="231.5" y="105.5" width="21" height="21" stroke="#0D1456"/>
<rect x="189.5" y="126.5" width="21" height="21" stroke="#0D1456"/>
<rect x="210.5" y="126.5" width="21" height="21" stroke="#0D1456"/>
<rect x="231.5" y="126.5" width="21" height="21" stroke="#0D1456"/>
<rect x="210.5" y="147.5" width="21" height="21" stroke="#0D1456"/>
<rect x="189.5" y="147.5" width="21" height="21" stroke="#0D1456"/>
<rect x="231.5" y="147.5" width="21" height="21" stroke="#0D1456"/>
<rect x="126.5" y="168.5" width="21" height="21" stroke="#0D1456"/>
<rect x="147.5" y="168.5" width="21" height="21" stroke="#0D1456"/>
<rect x="168.5" y="168.5" width="21" height="21" stroke="#0D1456"/>
<rect x="147.5" y="189.5" width="21" height="21" stroke="#0D1456"/>
<rect x="126.5" y="189.5" width="21" height="21" stroke="#0D1456"/>
<rect x="168.5" y="189.5" width="21" height="21" stroke="#0D1456"/>
<rect x="126.5" y="210.5" width="21" height="21" stroke="#0D1456"/>
<rect x="147.5" y="210.5" width="21" height="21" stroke="#0D1456"/>
<rect x="168.5" y="210.5" width="21" height="21" stroke="#0D1456"/>
<rect x="147.5" y="231.5" width="21" height="21" stroke="#0D1456"/>
<rect x="126.5" y="231.5" width="21" height="21" stroke="#0D1456"/>
<rect x="168.5" y="231.5" width="21" height="21" stroke="#0D1456"/>
<rect x="189.5" y="168.5" width="21" height="21" stroke="#0D1456"/>
<rect x="210.5" y="168.5" width="21" height="21" stroke="#0D1456"/>
<rect x="231.5" y="168.5" width="21" height="21" stroke="#0D1456"/>
<rect x="210.5" y="189.5" width="21" height="21" stroke="#0D1456"/>
<rect x="189.5" y="189.5" width="21" height="21" stroke="#0D1456"/>
<rect x="231.5" y="189.5" width="21" height="21" stroke="#0D1456"/>
<rect x="189.5" y="210.5" width="21" height="21" stroke="#0D1456"/>
<rect x="210.5" y="210.5" width="21" height="21" stroke="#0D1456"/>
<rect x="231.5" y="210.5" width="21" height="21" stroke="#0D1456"/>
<rect x="210.5" y="231.5" width="21" height="21" stroke="#0D1456"/>
<rect x="189.5" y="231.5" width="21" height="21" stroke="#0D1456"/>
<rect x="231.5" y="231.5" width="21" height="21" stroke="#0D1456"/>
<rect x="126.5" y="252.5" width="21" height="21" stroke="#0D1456"/>
<rect x="147.5" y="252.5" width="21" height="21" stroke="#0D1456"/>
<rect x="168.5" y="252.5" width="21" height="21" stroke="#0D1456"/>
<rect x="147.5" y="273.5" width="21" height="21" stroke="#0D1456"/>
<rect x="126.5" y="273.5" width="21" height="21" stroke="#0D1456"/>
<rect x="168.5" y="273.5" width="21" height="21" stroke="#0D1456"/>
<rect x="126.5" y="294.5" width="21" height="21" stroke="#0D1456"/>
<rect x="147.5" y="294.5" width="21" height="21" stroke="#0D1456"/>
<rect x="168.5" y="294.5" width="21" height="21" stroke="#0D1456"/>
<rect x="147.5" y="315.5" width="21" height="21" stroke="#0D1456"/>
<rect x="126.5" y="315.5" width="21" height="21" stroke="#0D1456"/>
<rect x="168.5" y="315.5" width="21" height="21" stroke="#0D1456"/>
<rect x="189.5" y="252.5" width="21" height="21" stroke="#0D1456"/>
<rect x="210.5" y="252.5" width="21" height="21" stroke="#0D1456"/>
<rect x="231.5" y="252.5" width="21" height="21" stroke="#0D1456"/>
<rect x="210.5" y="273.5" width="21" height="21" stroke="#0D1456"/>
<rect x="189.5" y="273.5" width="21" height="21" stroke="#0D1456"/>
<rect x="231.5" y="273.5" width="21" height="21" stroke="#0D1456"/>
<rect x="189.5" y="294.5" width="21" height="21" stroke="#0D1456"/>
<rect x="210.5" y="294.5" width="21" height="21" stroke="#0D1456"/>
<rect x="231.5" y="294.5" width="21" height="21" stroke="#0D1456"/>
<rect x="210.5" y="315.5" width="21" height="21" stroke="#0D1456"/>
<rect x="189.5" y="315.5" width="21" height="21" stroke="#0D1456"/>
<rect x="231.5" y="315.5" width="21" height="21" stroke="#0D1456"/>
<rect x="252.5" y="0.5" width="21" height="21" stroke="#0D1456"/>
<rect x="273.5" y="0.5" width="21" height="21" stroke="#0D1456"/>
<rect x="294.5" y="0.5" width="21" height="21" stroke="#0D1456"/>
<rect x="273.5" y="21.5" width="21" height="21" stroke="#0D1456"/>
<rect x="252.5" y="21.5" width="21" height="21" stroke="#0D1456"/>
<rect x="294.5" y="21.5" width="21" height="21" stroke="#0D1456"/>
<rect x="252.5" y="42.5" width="21" height="21" stroke="#0D1456"/>
<rect x="273.5" y="42.5" width="21" height="21" stroke="#0D1456"/>
<rect x="294.5" y="42.5" width="21" height="21" stroke="#0D1456"/>
<rect x="273.5" y="63.5" width="21" height="21" stroke="#0D1456"/>
<rect x="252.5" y="63.5" width="21" height="21" stroke="#0D1456"/>
<rect x="294.5" y="63.5" width="21" height="21" stroke="#0D1456"/>
<rect x="315.5" y="0.5" width="21" height="21" stroke="#0D1456"/>
<rect x="336.5" y="0.5" width="21" height="21" stroke="#0D1456"/>
<rect x="357.5" y="0.5" width="21" height="21" stroke="#0D1456"/>
<rect x="336.5" y="21.5" width="21" height="21" stroke="#0D1456"/>
<rect x="315.5" y="21.5" width="21" height="21" stroke="#0D1456"/>
<rect x="357.5" y="21.5" width="21" height="21" stroke="#0D1456"/>
<rect x="315.5" y="42.5" width="21" height="21" stroke="#0D1456"/>
<rect x="336.5" y="42.5" width="21" height="21" stroke="#0D1456"/>
<rect x="357.5" y="42.5" width="21" height="21" stroke="#0D1456"/>
<rect x="336.5" y="63.5" width="21" height="21" stroke="#0D1456"/>
<rect x="315.5" y="63.5" width="21" height="21" stroke="#0D1456"/>
<rect x="357.5" y="63.5" width="21" height="21" stroke="#0D1456"/>
<rect x="252.5" y="84.5" width="21" height="21" stroke="#0D1456"/>
<rect x="273.5" y="84.5" width="21" height="21" stroke="#0D1456"/>
<rect x="294.5" y="84.5" width="21" height="21" stroke="#0D1456"/>
<rect x="273.5" y="105.5" width="21" height="21" stroke="#0D1456"/>
<rect x="252.5" y="105.5" width="21" height="21" stroke="#0D1456"/>
<rect x="294.5" y="105.5" width="21" height="21" stroke="#0D1456"/>
<rect x="252.5" y="126.5" width="21" height="21" stroke="#0D1456"/>
<rect x="273.5" y="126.5" width="21" height="21" stroke="#0D1456"/>
<rect x="294.5" y="126.5" width="21" height="21" stroke="#0D1456"/>
<rect x="273.5" y="147.5" width="21" height="21" stroke="#0D1456"/>
<rect x="252.5" y="147.5" width="21" height="21" stroke="#0D1456"/>
<rect x="294.5" y="147.5" width="21" height="21" stroke="#0D1456"/>
<rect x="315.5" y="84.5" width="21" height="21" stroke="#0D1456"/>
<rect x="336.5" y="84.5" width="21" height="21" stroke="#0D1456"/>
<rect x="357.5" y="84.5" width="21" height="21" stroke="#0D1456"/>
<rect x="336.5" y="105.5" width="21" height="21" stroke="#0D1456"/>
<rect x="315.5" y="105.5" width="21" height="21" stroke="#0D1456"/>
<rect x="357.5" y="105.5" width="21" height="21" stroke="#0D1456"/>
<rect x="315.5" y="126.5" width="21" height="21" stroke="#0D1456"/>
<rect x="336.5" y="126.5" width="21" height="21" stroke="#0D1456"/>
<rect x="357.5" y="126.5" width="21" height="21" stroke="#0D1456"/>
<rect x="336.5" y="147.5" width="21" height="21" stroke="#0D1456"/>
<rect x="315.5" y="147.5" width="21" height="21" stroke="#0D1456"/>
<rect x="357.5" y="147.5" width="21" height="21" stroke="#0D1456"/>
<rect x="252.5" y="168.5" width="21" height="21" stroke="#0D1456"/>
<rect x="273.5" y="168.5" width="21" height="21" stroke="#0D1456"/>
<rect x="294.5" y="168.5" width="21" height="21" stroke="#0D1456"/>
<rect x="273.5" y="189.5" width="21" height="21" stroke="#0D1456"/>
<rect x="252.5" y="189.5" width="21" height="21" stroke="#0D1456"/>
<rect x="294.5" y="189.5" width="21" height="21" stroke="#0D1456"/>
<rect x="252.5" y="210.5" width="21" height="21" stroke="#0D1456"/>
<rect x="273.5" y="210.5" width="21" height="21" stroke="#0D1456"/>
<rect x="294.5" y="210.5" width="21" height="21" stroke="#0D1456"/>
<rect x="273.5" y="231.5" width="21" height="21" stroke="#0D1456"/>
<rect x="252.5" y="231.5" width="21" height="21" stroke="#0D1456"/>
<rect x="294.5" y="231.5" width="21" height="21" stroke="#0D1456"/>
<rect x="315.5" y="168.5" width="21" height="21" stroke="#0D1456"/>
<rect x="336.5" y="168.5" width="21" height="21" stroke="#0D1456"/>
<rect x="357.5" y="168.5" width="21" height="21" stroke="#0D1456"/>
<rect x="336.5" y="189.5" width="21" height="21" stroke="#0D1456"/>
<rect x="315.5" y="189.5" width="21" height="21" stroke="#0D1456"/>
<rect x="357.5" y="189.5" width="21" height="21" stroke="#0D1456"/>
<rect x="315.5" y="210.5" width="21" height="21" stroke="#0D1456"/>
<rect x="336.5" y="210.5" width="21" height="21" stroke="#0D1456"/>
<rect x="357.5" y="210.5" width="21" height="21" stroke="#0D1456"/>
<rect x="336.5" y="231.5" width="21" height="21" stroke="#0D1456"/>
<rect x="315.5" y="231.5" width="21" height="21" stroke="#0D1456"/>
<rect x="357.5" y="231.5" width="21" height="21" stroke="#0D1456"/>
<rect x="252.5" y="252.5" width="21" height="21" stroke="#0D1456"/>
<rect x="273.5" y="252.5" width="21" height="21" stroke="#0D1456"/>
<rect x="294.5" y="252.5" width="21" height="21" stroke="#0D1456"/>
<rect x="273.5" y="273.5" width="21" height="21" stroke="#0D1456"/>
<rect x="252.5" y="273.5" width="21" height="21" stroke="#0D1456"/>
<rect x="294.5" y="273.5" width="21" height="21" stroke="#0D1456"/>
<rect x="252.5" y="294.5" width="21" height="21" stroke="#0D1456"/>
<rect x="273.5" y="294.5" width="21" height="21" stroke="#0D1456"/>
<rect x="294.5" y="294.5" width="21" height="21" stroke="#0D1456"/>
<rect x="273.5" y="315.5" width="21" height="21" stroke="#0D1456"/>
<rect x="252.5" y="315.5" width="21" height="21" stroke="#0D1456"/>
<rect x="294.5" y="315.5" width="21" height="21" stroke="#0D1456"/>
<rect x="315.5" y="252.5" width="21" height="21" stroke="#0D1456"/>
<rect x="336.5" y="252.5" width="21" height="21" stroke="#0D1456"/>
<rect x="357.5" y="252.5" width="21" height="21" stroke="#0D1456"/>
<rect x="336.5" y="273.5" width="21" height="21" stroke="#0D1456"/>
<rect x="315.5" y="273.5" width="21" height="21" stroke="#0D1456"/>
<rect x="357.5" y="273.5" width="21" height="21" stroke="#0D1456"/>
<rect x="315.5" y="294.5" width="21" height="21" stroke="#0D1456"/>
<rect x="336.5" y="294.5" width="21" height="21" stroke="#0D1456"/>
<rect x="357.5" y="294.5" width="21" height="21" stroke="#0D1456"/>
<rect x="336.5" y="315.5" width="21" height="21" stroke="#0D1456"/>
<rect x="315.5" y="315.5" width="21" height="21" stroke="#0D1456"/>
<rect x="357.5" y="315.5" width="21" height="21" stroke="#0D1456"/>
<rect x="378.5" y="0.5" width="21" height="21" stroke="#0D1456" stroke-opacity="0.95"/>
<rect x="399.5" y="0.5" width="21" height="21" stroke="#0D1456" stroke-opacity="0.95"/>
<rect x="420.5" y="0.5" width="21" height="21" stroke="#0D1456" stroke-opacity="0.95"/>
<rect x="399.5" y="21.5" width="21" height="21" stroke="#0D1456" stroke-opacity="0.95"/>
<rect x="378.5" y="21.5" width="21" height="21" stroke="#0D1456" stroke-opacity="0.95"/>
<rect x="420.5" y="21.5" width="21" height="21" stroke="#0D1456" stroke-opacity="0.95"/>
<rect x="378.5" y="42.5" width="21" height="21" stroke="#0D1456" stroke-opacity="0.95"/>
<rect x="399.5" y="42.5" width="21" height="21" stroke="#0D1456" stroke-opacity="0.95"/>
<rect x="420.5" y="42.5" width="21" height="21" stroke="#0D1456" stroke-opacity="0.95"/>
<rect x="399.5" y="63.5" width="21" height="21" stroke="#0D1456" stroke-opacity="0.95"/>
<rect x="378.5" y="63.5" width="21" height="21" stroke="#0D1456" stroke-opacity="0.95"/>
<rect x="420.5" y="63.5" width="21" height="21" stroke="#0D1456" stroke-opacity="0.95"/>
<rect x="441.5" y="0.5" width="21" height="21" stroke="#0D1456" stroke-opacity="0.95"/>
<rect x="462.5" y="0.5" width="21" height="21" stroke="#0D1456" stroke-opacity="0.95"/>
<rect x="483.5" y="0.5" width="21" height="21" stroke="#0D1456" stroke-opacity="0.95"/>
<rect x="462.5" y="21.5" width="21" height="21" stroke="#0D1456" stroke-opacity="0.95"/>
<rect x="441.5" y="21.5" width="21" height="21" stroke="#0D1456" stroke-opacity="0.95"/>
<rect x="483.5" y="21.5" width="21" height="21" stroke="#0D1456" stroke-opacity="0.95"/>
<rect x="441.5" y="42.5" width="21" height="21" stroke="#0D1456" stroke-opacity="0.95"/>
<rect x="462.5" y="42.5" width="21" height="21" stroke="#0D1456" stroke-opacity="0.95"/>
<rect x="483.5" y="42.5" width="21" height="21" stroke="#0D1456" stroke-opacity="0.95"/>
<rect x="462.5" y="63.5" width="21" height="21" stroke="#0D1456" stroke-opacity="0.95"/>
<rect x="441.5" y="63.5" width="21" height="21" stroke="#0D1456" stroke-opacity="0.95"/>
<rect x="483.5" y="63.5" width="21" height="21" stroke="#0D1456" stroke-opacity="0.95"/>
<rect x="378.5" y="84.5" width="21" height="21" stroke="#0D1456" stroke-opacity="0.95"/>
<rect x="399.5" y="84.5" width="21" height="21" stroke="#0D1456" stroke-opacity="0.95"/>
<rect x="420.5" y="84.5" width="21" height="21" stroke="#0D1456" stroke-opacity="0.95"/>
<rect x="399.5" y="105.5" width="21" height="21" stroke="#0D1456" stroke-opacity="0.95"/>
<rect x="378.5" y="105.5" width="21" height="21" stroke="#0D1456" stroke-opacity="0.95"/>
<rect x="420.5" y="105.5" width="21" height="21" stroke="#0D1456" stroke-opacity="0.95"/>
<rect x="378.5" y="126.5" width="21" height="21" stroke="#0D1456" stroke-opacity="0.95"/>
<rect x="399.5" y="126.5" width="21" height="21" stroke="#0D1456" stroke-opacity="0.95"/>
<rect x="420.5" y="126.5" width="21" height="21" stroke="#0D1456" stroke-opacity="0.95"/>
<rect x="399.5" y="147.5" width="21" height="21" stroke="#0D1456" stroke-opacity="0.95"/>
<rect x="378.5" y="147.5" width="21" height="21" stroke="#0D1456" stroke-opacity="0.95"/>
<rect x="420.5" y="147.5" width="21" height="21" stroke="#0D1456" stroke-opacity="0.95"/>
<rect x="441.5" y="84.5" width="21" height="21" stroke="#0D1456" stroke-opacity="0.95"/>
<rect x="462.5" y="84.5" width="21" height="21" stroke="#0D1456" stroke-opacity="0.95"/>
<rect x="483.5" y="84.5" width="21" height="21" stroke="#0D1456" stroke-opacity="0.95"/>
<rect x="462.5" y="105.5" width="21" height="21" stroke="#0D1456" stroke-opacity="0.95"/>
<rect x="441.5" y="105.5" width="21" height="21" stroke="#0D1456" stroke-opacity="0.95"/>
<rect x="483.5" y="105.5" width="21" height="21" stroke="#0D1456" stroke-opacity="0.95"/>
<rect x="441.5" y="126.5" width="21" height="21" stroke="#0D1456" stroke-opacity="0.95"/>
<rect x="462.5" y="126.5" width="21" height="21" stroke="#0D1456" stroke-opacity="0.95"/>
<rect x="483.5" y="126.5" width="21" height="21" stroke="#0D1456" stroke-opacity="0.95"/>
<rect x="462.5" y="147.5" width="21" height="21" stroke="#0D1456" stroke-opacity="0.95"/>
<rect x="441.5" y="147.5" width="21" height="21" stroke="#0D1456" stroke-opacity="0.95"/>
<rect x="483.5" y="147.5" width="21" height="21" stroke="#0D1456" stroke-opacity="0.95"/>
<rect x="378.5" y="168.5" width="21" height="21" stroke="#0D1456" stroke-opacity="0.95"/>
<rect x="399.5" y="168.5" width="21" height="21" stroke="#0D1456" stroke-opacity="0.95"/>
<rect x="420.5" y="168.5" width="21" height="21" stroke="#0D1456" stroke-opacity="0.95"/>
<rect x="399.5" y="189.5" width="21" height="21" stroke="#0D1456" stroke-opacity="0.95"/>
<rect x="378.5" y="189.5" width="21" height="21" stroke="#0D1456" stroke-opacity="0.95"/>
<rect x="420.5" y="189.5" width="21" height="21" stroke="#0D1456" stroke-opacity="0.95"/>
<rect x="378.5" y="210.5" width="21" height="21" stroke="#0D1456" stroke-opacity="0.95"/>
<rect x="399.5" y="210.5" width="21" height="21" stroke="#0D1456" stroke-opacity="0.95"/>
<rect x="420.5" y="210.5" width="21" height="21" stroke="#0D1456" stroke-opacity="0.95"/>
<rect x="399.5" y="231.5" width="21" height="21" stroke="#0D1456" stroke-opacity="0.95"/>
<rect x="378.5" y="231.5" width="21" height="21" stroke="#0D1456" stroke-opacity="0.95"/>
<rect x="420.5" y="231.5" width="21" height="21" stroke="#0D1456" stroke-opacity="0.95"/>
<rect x="441.5" y="168.5" width="21" height="21" stroke="#0D1456" stroke-opacity="0.95"/>
<rect x="462.5" y="168.5" width="21" height="21" stroke="#0D1456" stroke-opacity="0.95"/>
<rect x="483.5" y="168.5" width="21" height="21" stroke="#0D1456" stroke-opacity="0.95"/>
<rect x="462.5" y="189.5" width="21" height="21" stroke="#0D1456" stroke-opacity="0.95"/>
<rect x="441.5" y="189.5" width="21" height="21" stroke="#0D1456" stroke-opacity="0.95"/>
<rect x="483.5" y="189.5" width="21" height="21" stroke="#0D1456" stroke-opacity="0.95"/>
<rect x="441.5" y="210.5" width="21" height="21" stroke="#0D1456" stroke-opacity="0.95"/>
<rect x="462.5" y="210.5" width="21" height="21" stroke="#0D1456" stroke-opacity="0.95"/>
<rect x="483.5" y="210.5" width="21" height="21" stroke="#0D1456" stroke-opacity="0.95"/>
<rect x="462.5" y="231.5" width="21" height="21" stroke="#0D1456" stroke-opacity="0.95"/>
<rect x="441.5" y="231.5" width="21" height="21" stroke="#0D1456" stroke-opacity="0.95"/>
<rect x="483.5" y="231.5" width="21" height="21" stroke="#0D1456" stroke-opacity="0.95"/>
<rect x="378.5" y="252.5" width="21" height="21" stroke="#0D1456" stroke-opacity="0.95"/>
<rect x="399.5" y="252.5" width="21" height="21" stroke="#0D1456" stroke-opacity="0.95"/>
<rect x="420.5" y="252.5" width="21" height="21" stroke="#0D1456" stroke-opacity="0.95"/>
<rect x="399.5" y="273.5" width="21" height="21" stroke="#0D1456" stroke-opacity="0.95"/>
<rect x="378.5" y="273.5" width="21" height="21" stroke="#0D1456" stroke-opacity="0.95"/>
<rect x="420.5" y="273.5" width="21" height="21" stroke="#0D1456" stroke-opacity="0.95"/>
<rect x="378.5" y="294.5" width="21" height="21" stroke="#0D1456" stroke-opacity="0.95"/>
<rect x="399.5" y="294.5" width="21" height="21" stroke="#0D1456" stroke-opacity="0.95"/>
<rect x="420.5" y="294.5" width="21" height="21" stroke="#0D1456" stroke-opacity="0.95"/>
<rect x="399.5" y="315.5" width="21" height="21" stroke="#0D1456" stroke-opacity="0.95"/>
<rect x="378.5" y="315.5" width="21" height="21" stroke="#0D1456" stroke-opacity="0.95"/>
<rect x="420.5" y="315.5" width="21" height="21" stroke="#0D1456" stroke-opacity="0.95"/>
<rect x="441.5" y="252.5" width="21" height="21" stroke="#0D1456" stroke-opacity="0.95"/>
<rect x="462.5" y="252.5" width="21" height="21" stroke="#0D1456" stroke-opacity="0.95"/>
<rect x="483.5" y="252.5" width="21" height="21" stroke="#0D1456" stroke-opacity="0.95"/>
<rect x="462.5" y="273.5" width="21" height="21" stroke="#0D1456" stroke-opacity="0.95"/>
<rect x="441.5" y="273.5" width="21" height="21" stroke="#0D1456" stroke-opacity="0.95"/>
<rect x="483.5" y="273.5" width="21" height="21" stroke="#0D1456" stroke-opacity="0.95"/>
<rect x="441.5" y="294.5" width="21" height="21" stroke="#0D1456" stroke-opacity="0.95"/>
<rect x="462.5" y="294.5" width="21" height="21" stroke="#0D1456" stroke-opacity="0.95"/>
<rect x="483.5" y="294.5" width="21" height="21" stroke="#0D1456" stroke-opacity="0.95"/>
<rect x="462.5" y="315.5" width="21" height="21" stroke="#0D1456" stroke-opacity="0.95"/>
<rect x="441.5" y="315.5" width="21" height="21" stroke="#0D1456" stroke-opacity="0.95"/>
<rect x="483.5" y="315.5" width="21" height="21" stroke="#0D1456" stroke-opacity="0.95"/>
</g>
</svg>
