<svg width="43" height="67" viewBox="0 0 43 67" fill="none" xmlns="http://www.w3.org/2000/svg">
<path d="M13.8639 1.5C10.4548 1.5 7.6819 4.31005 7.6819 7.7644V27.2601H7.66095C3.98815 27.2639 1 30.2143 1 33.8385L1.00191 46.7768C1.00191 50.0431 3.78246 53.2588 6.7268 56.6645C8.05042 58.1955 10.2549 60.7469 10.4672 61.6957V64.5H13.324H32.3298H35.1866V61.6365C35.1866 60.5493 36.3226 58.374 37.3253 56.4574C39.0479 53.1596 41 49.4236 41 45.4138C41 39.4071 40.9848 33.8958 40.9848 33.8958C40.9848 30.7717 38.4308 28.2232 35.2903 28.2184V18.5608C35.2903 14.9403 32.2955 11.9957 28.6151 11.9957C28.2856 11.9957 27.9533 12.0224 27.6086 12.0787C27.2267 8.81435 24.4052 6.27251 20.9933 6.27251C20.6343 6.27251 20.2706 6.30496 19.8925 6.37178C19.265 3.58463 16.8006 1.5 13.8639 1.5Z" fill="white"/>
<path d="M13.509 3C15.437 3 17.001 4.596 17.001 6.563V28.834C17.017 29.486 17.683 30.01 18.507 30.01C19.341 30.01 20.017 29.474 20.017 28.812V8.208C20.017 8.183 20.009 8.158 20.007 8.134C20.325 8.055 20.652 8 20.995 8C23.2 8 24.989 9.736 24.989 11.878V17.874C24.989 17.846 24.997 17.818 24.997 17.789V29.811C24.997 30.473 25.673 31.009 26.507 31.009C27.341 31.009 28.017 30.473 28.017 29.811V14.208C28.017 14.182 28.009 14.156 28.007 14.13C28.325 14.051 28.653 13.996 28.999 13.996C31.214 13.996 33.009 15.732 33.009 17.874V33.938C33.013 32.31 34.349 30.992 35.999 30.992C37.649 30.992 38.989 32.315 38.989 33.948C38.989 33.948 39.005 39.718 39.005 46.007C39.005 52.294 32.9 58.823 32.9 63.003C27.712 63.003 16.464 63.003 12.941 63.003C12.941 59.259 3.002 51.857 3.002 47.435C3.002 47.382 3 33.88 3 33.88C3 31.733 4.789 29.99 6.998 29.988V38.812C6.998 39.474 7.674 40.009 8.508 40.009C9.342 40.009 10.018 39.474 10.018 38.812V31.344V6.564C10.017 4.595 11.579 3 13.509 3ZM13.509 0C9.929 0 7.017 2.944 7.017 6.563V26.988H6.995C3.138 26.992 0 30.083 0 33.88L0.00200081 47.435C0.00200081 50.857 2.922 54.226 6.014 57.794C7.404 59.398 9.719 62.071 9.942 63.065V66.003H12.942H32.901H35.901V63.003C35.901 61.864 37.094 59.585 38.147 57.577C39.956 54.122 42.006 50.208 42.006 46.007C42.006 39.714 41.99 33.94 41.99 33.94C41.99 30.667 39.308 27.997 36.01 27.992V17.874C36.01 14.081 32.865 10.996 29 10.996C28.654 10.996 28.305 11.024 27.943 11.083C27.542 7.663 24.579 5 20.996 5C20.619 5 20.237 5.034 19.84 5.104C19.181 2.184 16.593 0 13.509 0Z" fill="black"/>
</svg>
